<svg id="浏览器" xmlns="http://www.w3.org/2000/svg" width="37.667" height="37.84" viewBox="0 0 37.667 37.84">
  <g id="组_874" data-name="组 874" transform="translate(4.518 4.766)">
    <path id="路径_3306" data-name="路径 3306" d="M645.677,267.6a18.8,18.8,0,0,1-1.6,6.861,16.748,16.748,0,0,1,3.536,2.158,14.184,14.184,0,0,0,3.867-9.019Z" transform="translate(-622.847 -252.662)" fill="#595d81" stroke="rgba(0,0,0,0)" stroke-width="1"/>
    <path id="路径_3307" data-name="路径 3307" d="M616.515,304.1a15.131,15.131,0,0,0-3.962-.748v5.587A17.621,17.621,0,0,0,616.515,304.1Z" transform="translate(-597.453 -281.465)" fill="#595d81" stroke="rgba(0,0,0,0)" stroke-width="1"/>
    <path id="路径_3308" data-name="路径 3308" d="M619.89,315.239a14.245,14.245,0,0,0,7.087-3.258,15.147,15.147,0,0,0-3.074-1.843A19.211,19.211,0,0,1,619.89,315.239Z" transform="translate(-603.364 -286.93)" fill="#595d81" stroke="rgba(0,0,0,0)" stroke-width="1"/>
    <path id="路径_3309" data-name="路径 3309" d="M626.385,193.531a14.335,14.335,0,0,0-6.462-2.763A19.234,19.234,0,0,1,623.5,195.1,15.178,15.178,0,0,0,626.385,193.531Z" transform="translate(-603.39 -190.768)" fill="#595d81" stroke="rgba(0,0,0,0)" stroke-width="1"/>
    <path id="路径_3310" data-name="路径 3310" d="M612.553,267.6v5.379a16.7,16.7,0,0,1,4.671.9,17.257,17.257,0,0,0,1.49-6.282Z" transform="translate(-597.453 -252.662)" fill="#595d81" stroke="rgba(0,0,0,0)" stroke-width="1"/>
    <path id="路径_3311" data-name="路径 3311" d="M612.553,230.072h6.16a17.519,17.519,0,0,0-1.867-7.11,16.746,16.746,0,0,1-4.293.781Z" transform="translate(-597.453 -216.703)" fill="#595d81" stroke="rgba(0,0,0,0)" stroke-width="1"/>
    <path id="路径_3312" data-name="路径 3312" d="M650,219.947a14.339,14.339,0,0,0-4.405-9.553,16.731,16.731,0,0,1-3.355,1.9,19.085,19.085,0,0,1,1.959,7.658Z" transform="translate(-621.365 -206.578)" fill="#595d81" stroke="rgba(0,0,0,0)" stroke-width="1"/>
    <path id="路径_3313" data-name="路径 3313" d="M612.553,195.034v4.639a15.14,15.14,0,0,0,3.5-.609A17.693,17.693,0,0,0,612.553,195.034Z" transform="translate(-597.453 -194.205)" fill="#595d81" stroke="rgba(0,0,0,0)" stroke-width="1"/>
    <path id="路径_3314" data-name="路径 3314" d="M542.287,274.46a18.8,18.8,0,0,1-1.6-6.861h-5.8a14.184,14.184,0,0,0,3.867,9.019A16.746,16.746,0,0,1,542.287,274.46Z" transform="translate(-534.885 -252.662)" fill="#595d81" stroke="rgba(0,0,0,0)" stroke-width="1"/>
    <path id="路径_3315" data-name="路径 3315" d="M540.685,219.947a19.088,19.088,0,0,1,1.959-7.658,16.728,16.728,0,0,1-3.355-1.9,14.338,14.338,0,0,0-4.405,9.553Z" transform="translate(-534.884 -206.578)" fill="#595d81" stroke="rgba(0,0,0,0)" stroke-width="1"/>
    <path id="路径_3316" data-name="路径 3316" d="M586.476,199.063a15.146,15.146,0,0,0,3.5.609v-4.639A17.712,17.712,0,0,0,586.476,199.063Z" transform="translate(-576.446 -194.204)" fill="#595d81" stroke="rgba(0,0,0,0)" stroke-width="1"/>
    <path id="路径_3317" data-name="路径 3317" d="M588.067,308.94v-5.587a15.136,15.136,0,0,0-3.963.748A17.613,17.613,0,0,0,588.067,308.94Z" transform="translate(-574.535 -281.465)" fill="#595d81" stroke="rgba(0,0,0,0)" stroke-width="1"/>
    <path id="路径_3318" data-name="路径 3318" d="M578.956,267.6h-6.161a17.257,17.257,0,0,0,1.49,6.282,16.706,16.706,0,0,1,4.671-.9Z" transform="translate(-565.425 -252.662)" fill="#595d81" stroke="rgba(0,0,0,0)" stroke-width="1"/>
    <path id="路径_3319" data-name="路径 3319" d="M560.7,311.98a14.241,14.241,0,0,0,7.087,3.259,19.2,19.2,0,0,1-4.013-5.1A15.146,15.146,0,0,0,560.7,311.98Z" transform="translate(-555.679 -286.93)" fill="#595d81" stroke="rgba(0,0,0,0)" stroke-width="1"/>
    <path id="路径_3320" data-name="路径 3320" d="M578.959,223.743a16.749,16.749,0,0,1-4.294-.781,17.518,17.518,0,0,0-1.867,7.11h6.16Z" transform="translate(-565.428 -216.703)" fill="#595d81" stroke="rgba(0,0,0,0)" stroke-width="1"/>
    <path id="路径_3321" data-name="路径 3321" d="M570.338,190.768a14.334,14.334,0,0,0-6.463,2.763,15.175,15.175,0,0,0,2.88,1.566A19.238,19.238,0,0,1,570.338,190.768Z" transform="translate(-558.239 -190.768)" fill="#595d81" stroke="rgba(0,0,0,0)" stroke-width="1"/>
  </g>
  <g id="椭圆_2426" data-name="椭圆 2426" transform="translate(1.909 2.43)" fill="none" stroke="#c5d9ff" stroke-width="1" opacity="0.6">
    <ellipse cx="16.751" cy="16.577" rx="16.751" ry="16.577" stroke="none"/>
    <ellipse cx="16.751" cy="16.577" rx="16.251" ry="16.077" fill="none"/>
  </g>
  <g id="椭圆_2427" data-name="椭圆 2427" transform="translate(0 0)" fill="none" stroke="#c5d9ff" stroke-width="1" stroke-dasharray="4" opacity="0.31">
    <ellipse cx="18.833" cy="18.92" rx="18.833" ry="18.92" stroke="none"/>
    <ellipse cx="18.833" cy="18.92" rx="18.333" ry="18.42" fill="none"/>
  </g>
</svg>
